# xmcd CD database file
#
# Track frame offsets:
#	150
#	33526
#	53727
#	73136
#	125431
#	154021
#	176096
#	192542
#
# Disc length: 2916 seconds
#
# Revision: 0
# Processed by: cddbd v1.5.2PL0 Copyright (c) Steve Scherf et al.
# Submitted via: CDex 1.51
#
DISCID=720b6208
DTITLE=Baltscheit, M. - Major Dux (Jazz-Hörspiel)
DYEAR=2006
DGENRE=Hörspiel -Kinder
TTITLE0=1. Takt: Das Musikverbot und ein kleiner Musiker singt den Major Dux Song
TTITLE1=2. Takt: Hier wird in der U-Bahn gepfiffen
TTITLE2=3. Takt: Der Alwin Schmidt Untergrund Song und im
TTITLE3=4. Takt  begegnen Alwin und Bartolomäus Bob einem Maulwurf 
TTITLE4=5. Takt  erzählt von einem alten Mann, der etwas weiß. Ein Esel aber weiß es im
TTITLE5=6. Takt  besser. Kurz danach stürzen die Mauern ein. Endlich im
TTITLE6=7. Takt  wird nicht gesungen. Dann im
TTITLE7=8. Takt wird alles wieser gut.
EXTD=YEAR: 2006
EXTT0=
EXTT1=
EXTT2=
EXTT3=
EXTT4=
EXTT5=
EXTT6=
EXTT7=
PLAYORDER=
